<?xml version="1.0" encoding="UTF-8"?>
<!DOCTYPE svg PUBLIC "-//W3C//DTD SVG 1.1//EN" "http://www.w3.org/Graphics/SVG/1.1/DTD/svg11.dtd">
<svg xmlns="http://www.w3.org/2000/svg" version="1.1" width="300px" height="300px" style="shape-rendering:geometricPrecision; text-rendering:geometricPrecision; image-rendering:optimizeQuality; fill-rule:evenodd; clip-rule:evenodd" xmlns:xlink="http://www.w3.org/1999/xlink">
<g><path style="opacity:1" fill="#0e2134" d="M -0.5,-0.5 C 99.5,-0.5 199.5,-0.5 299.5,-0.5C 299.5,99.5 299.5,199.5 299.5,299.5C 199.5,299.5 99.5,299.5 -0.5,299.5C -0.5,199.5 -0.5,99.5 -0.5,-0.5 Z"/></g>
<g><path style="opacity:1" fill="#bb9048" d="M 134.5,19.5 C 167.845,16.1112 196.012,26.4445 219,50.5C 241.952,79.5549 246.952,111.555 234,146.5C 229.706,155.599 224.539,164.099 218.5,172C 222.861,183.888 227.361,195.722 232,207.5C 233.393,212.095 233.726,216.761 233,221.5C 226.599,197.358 217.933,174.024 207,151.5C 201.452,143.125 193.952,137.125 184.5,133.5C 194.492,135.12 202.325,140.453 208,149.5C 211.016,155.531 214.016,161.531 217,167.5C 233.267,147.787 239.933,125.12 237,99.5C 230.847,62.0149 209.681,37.5149 173.5,26C 125.882,16.228 90.7154,32.728 68,75.5C 56.5714,106.607 59.9047,135.941 78,163.5C 79.3333,164.833 80.6667,166.167 82,167.5C 86.1067,155.1 93.2734,144.933 103.5,137C 107.119,134.845 110.785,133.678 114.5,133.5C 105.774,136.775 98.6078,142.109 93,149.5C 81.424,172.565 72.424,196.565 66,221.5C 65.2738,216.761 65.6071,212.095 67,207.5C 71.3036,195.589 75.8036,183.755 80.5,172C 57.7907,143.248 52.2907,111.414 64,76.5C 78.0852,45.7249 101.585,26.7249 134.5,19.5 Z"/></g>
<g><path style="opacity:1" fill="#bb9049" d="M 195.5,47.5 C 196.816,49.7158 198.483,51.7158 200.5,53.5C 198.282,54.9242 196.782,56.9242 196,59.5C 196.063,56.2328 194.563,54.0661 191.5,53C 194.215,52.1253 195.548,50.2919 195.5,47.5 Z"/></g>
<g><path style="opacity:1" fill="#b58c48" d="M 138.5,34.5 C 165.92,30.4281 181.42,42.0948 185,69.5C 187.917,73.6661 190.584,77.9994 193,82.5C 193.333,87.1667 193.667,91.8333 194,96.5C 202.088,102.662 204.755,110.662 202,120.5C 205.053,123.887 207.72,127.553 210,131.5C 211.056,135.624 210.222,139.29 207.5,142.5C 206.592,141.21 206.759,139.877 208,138.5C 208.705,132.236 206.372,127.236 201,123.5C 200.219,122.271 199.719,120.938 199.5,119.5C 200.819,115.906 201.319,112.239 201,108.5C 198.385,104.217 195.385,100.217 192,96.5C 191.667,91.8333 191.333,87.1667 191,82.5C 188.083,78.3339 185.416,74.0006 183,69.5C 182.427,55.1628 175.927,44.6628 163.5,38C 136.381,30.8081 120.547,40.9747 116,68.5C 113.73,73.0978 111.063,77.4311 108,81.5C 107.667,86.5 107.333,91.5 107,96.5C 104,100.167 101,103.833 98,107.5C 97.918,112.505 97.918,117.505 98,122.5C 95.6667,125.5 93.3333,128.5 91,131.5C 90.1488,135.042 90.6488,138.375 92.5,141.5C 91.7261,142.711 90.8928,142.711 90,141.5C 88.4961,137.961 88.1628,134.295 89,130.5C 91.3333,127.5 93.6667,124.5 96,121.5C 95.8363,116.845 95.8363,112.179 96,107.5C 98.6153,103.217 101.615,99.2171 105,95.5C 105.333,90.8333 105.667,86.1667 106,81.5C 108.416,76.9994 111.083,72.6661 114,68.5C 115.187,51.8556 123.354,40.5223 138.5,34.5 Z"/></g>
<g><path style="opacity:1" fill="#aa8547" d="M 136.5,53.5 C 138.379,53.3932 138.712,53.8932 137.5,55C 132.952,56.8578 128.785,59.3578 125,62.5C 124.493,61.0039 124.993,59.8373 126.5,59C 129.767,56.8713 133.101,55.038 136.5,53.5 Z"/></g>
<g><path style="opacity:1" fill="#b48b48" d="M 155.5,47.5 C 159.694,50.7654 164.361,53.2654 169.5,55C 172.412,56.8578 173.912,59.3578 174,62.5C 172.878,60.3762 171.378,58.5429 169.5,57C 165.221,55.5272 161.221,53.5272 157.5,51C 156.177,50.1841 155.511,49.0174 155.5,47.5 Z"/></g>
<g><path style="opacity:1" fill="#a58247" d="M 139.5,42.5 C 140.675,42.281 141.675,42.6143 142.5,43.5C 138.503,44.6624 135.003,46.6624 132,49.5C 131.493,48.0039 131.993,46.8373 133.5,46C 135.727,45.059 137.727,43.8923 139.5,42.5 Z"/></g>
<g><path style="opacity:1" fill="#ae8848" d="M 156.5,43.5 C 159.019,42.206 161.352,42.706 163.5,45C 161.169,44.8429 158.836,44.3429 156.5,43.5 Z"/></g>
<g><path style="opacity:1" fill="#be9248" d="M 93.5,51.5 C 95.3826,55.4197 96.7159,59.753 97.5,64.5C 106.004,57.5941 106.671,58.4275 99.5,67C 102.911,67.9086 106.245,68.9086 109.5,70C 106.22,70.056 103.22,70.8893 100.5,72.5C 104.7,79.5727 103.7,80.2393 97.5,74.5C 96.05,79.0413 95.2166,83.708 95,88.5C 94.2137,83.7804 93.2137,79.1137 92,74.5C 84.681,81.5235 83.8477,80.8569 89.5,72.5C 86.6266,71.1846 83.6266,70.1846 80.5,69.5C 83.3664,68.792 86.1997,68.1253 89,67.5C 88.4267,65.1959 87.26,63.0292 85.5,61C 85.8333,60.8333 86.1667,60.6667 86.5,60.5C 88.1667,61.8333 89.8333,63.1667 91.5,64.5C 93.2806,60.3843 93.9473,56.0509 93.5,51.5 Z"/></g>
<g><path style="opacity:1" fill="#c49648" d="M 148.5,46.5 C 149.991,49.7202 151.491,53.0535 153,56.5C 159.052,61.5526 165.385,66.2193 172,70.5C 175.386,86.9158 171.219,101.083 159.5,113C 148.101,119.239 138.934,116.739 132,105.5C 125.325,93.6764 123.992,81.3431 128,68.5C 134.884,65.3914 140.884,61.0581 146,55.5C 147.549,52.6883 148.382,49.6883 148.5,46.5 Z"/></g>
<g><path style="opacity:1" fill="#212938" d="M 158.5,71.5 C 163.041,70.7692 167.041,71.7692 170.5,74.5C 170,74.8333 169.5,75.1667 169,75.5C 164.195,72.4998 159.695,72.8332 155.5,76.5C 155.167,76 154.833,75.5 154.5,75C 155.686,73.5879 157.019,72.4212 158.5,71.5 Z"/></g>
<g><path style="opacity:1" fill="#1b2636" d="M 130.5,71.5 C 133.85,71.335 137.183,71.5017 140.5,72C 142.002,72.5831 143.335,73.4164 144.5,74.5C 144.192,75.3081 143.692,75.9747 143,76.5C 138.752,73.0436 134.252,72.7102 129.5,75.5C 129.167,75.1667 128.833,74.8333 128.5,74.5C 129.193,73.4822 129.859,72.4822 130.5,71.5 Z"/></g>
<g><path style="opacity:1" fill="#1c2637" d="M 148.5,60.5 C 151.001,60.5109 151.168,61.1776 149,62.5C 147.721,67.227 149.555,69.727 154.5,70C 147.127,74.2234 143.96,72.0568 145,63.5C 146.145,62.3636 147.312,61.3636 148.5,60.5 Z"/></g>
<g><path style="opacity:1" fill="#a17f47" d="M 116.5,83.5 C 117.391,81.3911 118.558,79.3911 120,77.5C 120.149,80.1957 118.982,82.1957 116.5,83.5 Z"/></g>
<g><path style="opacity:1" fill="#202737" d="M 144.5,77.5 C 145.496,77.4142 146.329,77.7476 147,78.5C 147.922,82.6908 147.588,86.6908 146,90.5C 145.873,88.3659 146.039,86.1993 146.5,84C 146.518,81.5582 145.851,79.3915 144.5,77.5 Z"/></g>
<g><path style="opacity:1" fill="#232937" d="M 156.5,80.5 C 160.102,83.1435 163.768,83.1435 167.5,80.5C 167.833,80.8333 168.167,81.1667 168.5,81.5C 165.938,85.4739 162.604,86.3073 158.5,84C 157.177,83.1841 156.511,82.0174 156.5,80.5 Z"/></g>
<g><path style="opacity:1" fill="#222837" d="M 129.5,81.5 C 133.765,82.8142 138.098,82.8142 142.5,81.5C 138.263,86.7048 133.929,86.7048 129.5,81.5 Z"/></g>
<g><path style="opacity:1" fill="#b58d48" d="M 116.5,83.5 C 116.029,85.2883 115.696,87.1216 115.5,89C 117.173,94.0577 117.673,99.2244 117,104.5C 116.548,99.3166 115.382,94.3166 113.5,89.5C 113.467,86.8984 114.467,84.8984 116.5,83.5 Z"/></g>
<g><path style="opacity:1" fill="#a68347" d="M 121.5,86.5 C 122.75,86.5774 123.583,87.244 124,88.5C 124.346,90.2182 124.846,91.8849 125.5,93.5C 123.993,94.7388 122.826,94.4054 122,92.5C 121.505,90.5273 121.338,88.5273 121.5,86.5 Z"/></g>
<g><path style="opacity:1" fill="#b68d48" d="M 175.5,86.5 C 176.152,87.4486 176.486,88.6153 176.5,90C 176.691,91.9729 176.024,93.4729 174.5,94.5C 173.267,91.6584 173.6,88.9918 175.5,86.5 Z"/></g>
<g><path style="opacity:1" fill="#c09348" d="M 204.5,68.5 C 214.213,67.1621 220.213,71.4954 222.5,81.5C 221.167,90.1667 216.167,95.1667 207.5,96.5C 196.793,93.5781 197.126,91.7448 208.5,91C 217.359,81.6539 216.026,74.1539 204.5,68.5 Z"/></g>
<g><path style="opacity:1" fill="#1c2637" d="M 144.5,93.5 C 147.466,96.1551 150.466,96.1551 153.5,93.5C 153.833,93.8333 154.167,94.1667 154.5,94.5C 150.502,99.8186 147.169,99.4853 144.5,93.5 Z"/></g>
<g><path style="opacity:1" fill="#bb9048" d="M 78.5,93.5 C 79.7326,96.2672 81.7326,98.4339 84.5,100C 81.2268,100.94 79.3935,103.107 79,106.5C 78.9604,102.795 77.1271,100.628 73.5,100C 77.2832,99.3907 78.9498,97.224 78.5,93.5 Z"/></g>
<g><path style="opacity:1" fill="#192536" d="M 140.5,100.5 C 146.689,101.462 152.689,101.796 158.5,101.5C 155.688,103.079 152.688,104.412 149.5,105.5C 146.93,104.383 144.263,103.55 141.5,103C 140.748,102.329 140.414,101.496 140.5,100.5 Z"/></g>
<g><path style="opacity:1" fill="#a17e46" d="M 173.5,99.5 C 174.314,101.631 174.814,103.964 175,106.5C 177,109.167 179,111.833 181,114.5C 181.706,116.971 181.373,119.305 180,121.5C 179.667,119.167 179.333,116.833 179,114.5C 177,111.833 175,109.167 173,106.5C 172.444,104.115 172.61,101.782 173.5,99.5 Z"/></g>
<g><path style="opacity:1" fill="#b18a48" d="M 186.5,109.5 C 184.496,108.327 182.996,106.66 182,104.5C 181.377,100.195 181.877,96.028 183.5,92C 181.877,88.2673 180.71,84.434 180,80.5C 181.271,83.4326 182.938,86.0993 185,88.5C 185.538,93.0661 184.704,97.3994 182.5,101.5C 183.448,104.423 184.781,107.089 186.5,109.5 Z"/></g>
<g><path style="opacity:1" fill="#172437" d="M 152.5,105.5 C 153.774,106.189 153.774,107.023 152.5,108C 149.947,108.851 147.614,108.518 145.5,107C 148.036,106.814 150.369,106.314 152.5,105.5 Z"/></g>
<g><path style="opacity:1" fill="#b28a48" d="M 123.5,99.5 C 125.389,103.692 124.223,107.025 120,109.5C 118.319,113.17 118.486,116.837 120.5,120.5C 120.363,122.107 119.696,123.441 118.5,124.5C 117.978,119.789 117.811,114.789 118,109.5C 121.17,106.822 123.003,103.488 123.5,99.5 Z"/></g>
<g><path style="opacity:1" fill="#af8948" d="M 108.5,105.5 C 109.043,105.56 109.376,105.893 109.5,106.5C 108.408,108.183 107.741,110.016 107.5,112C 109.121,115.378 109.955,118.878 110,122.5C 107,126.167 104,129.833 101,133.5C 100.48,131.711 100.813,130.044 102,128.5C 104.185,127.072 106.185,125.405 108,123.5C 108.534,119.535 108.034,115.702 106.5,112C 106.482,109.59 107.149,107.423 108.5,105.5 Z"/></g>
<g><path style="opacity:1" fill="#bd9149" d="M 219.5,106.5 C 221.063,108.73 223.063,110.73 225.5,112.5C 223.041,113.791 221.541,115.791 221,118.5C 220.031,115.698 218.198,113.698 215.5,112.5C 218.824,111.841 220.157,109.841 219.5,106.5 Z"/></g>
<g><path style="opacity:1" fill="#a28147" d="M 186.5,109.5 C 188.377,110.659 188.877,112.326 188,114.5C 187.392,112.846 186.892,111.179 186.5,109.5 Z"/></g>
<g><path style="opacity:1" fill="#c59648" d="M 134.5,112.5 C 144.173,121.832 153.839,121.832 163.5,112.5C 162.888,119.95 165.888,125.284 172.5,128.5C 173.776,133.444 171.776,136.611 166.5,138C 152.35,143.502 138.85,142.335 126,134.5C 125.362,133.391 124.862,132.225 124.5,131C 127.327,128.642 130.161,126.142 133,123.5C 134.337,119.974 134.837,116.308 134.5,112.5 Z"/></g>
<g><path style="opacity:1" fill="#aa8448" d="M 81.5,121.5 C 82.4793,122.765 83.4793,124.099 84.5,125.5C 83.4783,126.354 82.6449,127.354 82,128.5C 81.3551,127.354 80.5217,126.354 79.5,125.5C 80.6302,124.378 81.2969,123.044 81.5,121.5 Z"/></g>
<g><path style="opacity:1" fill="#a27f46" d="M 193.5,113.5 C 194.124,113.917 194.457,114.584 194.5,115.5C 192.739,118.996 192.239,122.663 193,126.5C 194.667,127.833 196.333,129.167 198,130.5C 198.982,131.759 199.315,133.092 199,134.5C 196.135,131.72 193.468,128.72 191,125.5C 190.333,123.833 190.333,122.167 191,120.5C 192.411,118.35 193.245,116.016 193.5,113.5 Z"/></g>
<g><path style="opacity:1" fill="#a38046" d="M 113.5,142.5 C 114.289,142.783 114.956,143.283 115.5,144C 114.184,144.528 113.517,144.028 113.5,142.5 Z"/></g>
<g><path style="opacity:1" fill="#b08947" d="M 129.5,140.5 C 129.56,139.957 129.893,139.624 130.5,139.5C 136.327,142.386 142.493,143.72 149,143.5C 156.114,143.338 162.947,142.172 169.5,140C 156.209,147.055 142.876,147.221 129.5,140.5 Z"/></g>
<g><path style="opacity:1" fill="#b18a47" d="M 120.5,129.5 C 121.649,129.791 122.316,130.624 122.5,132C 124.277,140.928 126.11,149.761 128,158.5C 123.787,149.315 121.287,139.648 120.5,129.5 Z"/></g>
<g><path style="opacity:1" fill="#9c7a45" d="M 184.5,145.5 C 185.675,145.281 186.675,145.614 187.5,146.5C 185.948,147.798 184.948,147.465 184.5,145.5 Z"/></g>
<g><path style="opacity:1" fill="#b28a48" d="M 176.5,129.5 C 177.497,129.47 178.164,129.97 178.5,131C 177.256,137.885 175.756,144.718 174,151.5C 173.527,153.779 172.527,155.779 171,157.5C 172.815,148.226 174.648,138.893 176.5,129.5 Z"/></g>
<g><path style="opacity:1" fill="#c19549" d="M 132.5,148.5 C 143.838,148.333 155.172,148.5 166.5,149C 167,149.5 167.5,150 168,150.5C 168.832,161.848 168.666,173.181 167.5,184.5C 166.668,173.515 166.168,162.515 166,151.5C 155,150.167 144,150.167 133,151.5C 132.832,162.515 132.332,173.515 131.5,184.5C 130.334,173.181 130.168,161.848 131,150.5C 131.717,149.956 132.217,149.289 132.5,148.5 Z"/></g>
<g><path style="opacity:1" fill="#ba9048" d="M 136.5,152.5 C 137.776,153.386 137.776,154.386 136.5,155.5C 135.438,154.575 135.438,153.575 136.5,152.5 Z"/></g>
<g><path style="opacity:1" fill="#be9248" d="M 161.5,153.5 C 163.337,153.639 163.67,154.306 162.5,155.5C 161.702,155.043 161.369,154.376 161.5,153.5 Z"/></g>
<g><path style="opacity:1" fill="#b78e48" d="M 148.5,155.5 C 150.134,156.207 151.468,157.373 152.5,159C 151.069,159.465 149.903,160.299 149,161.5C 148.5,160.333 147.667,159.5 146.5,159C 147.823,158.184 148.489,157.017 148.5,155.5 Z"/></g>
<g><path style="opacity:1" fill="#b78d48" d="M 197.5,155.5 C 200.937,157.674 201.103,160.008 198,162.5C 197.535,161.069 196.701,159.903 195.5,159C 196.973,158.29 197.64,157.124 197.5,155.5 Z"/></g>
<g><path style="opacity:1" fill="#bd9248" d="M 107.5,151.5 C 108.165,153.369 108.831,155.369 109.5,157.5C 113.11,156.153 113.443,156.82 110.5,159.5C 111.729,160.281 113.062,160.781 114.5,161C 110.209,161.626 108.043,164.126 108,168.5C 107.957,164.126 105.791,161.626 101.5,161C 102.938,160.781 104.271,160.281 105.5,159.5C 104.391,157.786 105.058,157.119 107.5,157.5C 107.5,155.5 107.5,153.5 107.5,151.5 Z"/></g>
<g><path style="opacity:1" fill="#8b7142" d="M 179.5,162.5 C 181.337,162.639 181.67,163.306 180.5,164.5C 179.702,164.043 179.369,163.376 179.5,162.5 Z"/></g>
<g><path style="opacity:1" fill="#a58347" d="M 91.5,171.5 C 93.337,171.639 93.6704,172.306 92.5,173.5C 91.7025,173.043 91.3691,172.376 91.5,171.5 Z"/></g>
<g><path style="opacity:1" fill="#ad8746" d="M 156.5,171.5 C 157.316,173.144 158.65,174.31 160.5,175C 158.667,175.5 157.5,176.667 157,178.5C 156.535,177.069 155.701,175.903 154.5,175C 155.973,174.29 156.64,173.124 156.5,171.5 Z"/></g>
<g><path style="opacity:1" fill="#a88648" d="M 178.5,178.5 C 180.337,178.639 180.67,179.306 179.5,180.5C 178.702,180.043 178.369,179.376 178.5,178.5 Z"/></g>
<g><path style="opacity:1" fill="#a88546" d="M 113.5,179.5 C 115.337,179.639 115.67,180.306 114.5,181.5C 113.702,181.043 113.369,180.376 113.5,179.5 Z"/></g>
<g><path style="opacity:1" fill="#c09348" d="M 147.5,165.5 C 149.527,165.338 151.527,165.505 153.5,166C 146.608,168.851 144.775,173.684 148,180.5C 149.952,182.894 152.452,184.394 155.5,185C 148.854,188.217 144.021,186.384 141,179.5C 140.209,173.417 142.376,168.75 147.5,165.5 Z"/></g>
<g><path style="opacity:1" fill="#aa8446" d="M 193.5,171.5 C 194.096,182.172 192.93,192.839 190,203.5C 190.015,192.714 191.181,182.048 193.5,171.5 Z"/></g>
<g><path style="opacity:1" fill="#a88346" d="M 94.5,179.5 C 96.5717,184.534 98.5717,189.7 100.5,195C 100.167,195.167 99.8333,195.333 99.5,195.5C 96.2921,190.674 94.6254,185.341 94.5,179.5 Z"/></g>
<g><path style="opacity:1" fill="#b18a47" d="M 148.5,190.5 C 150.054,191.693 151.721,192.86 153.5,194C 151.924,194.44 150.59,195.273 149.5,196.5C 148.646,195.478 147.646,194.645 146.5,194C 147.823,193.184 148.489,192.017 148.5,190.5 Z"/></g>
<g><path style="opacity:1" fill="#af8847" d="M 86.5,192.5 C 89.7568,193.462 92.7568,194.962 95.5,197C 97.3293,198.113 98.1626,199.613 98,201.5C 94.1191,198.34 90.2858,195.34 86.5,192.5 Z"/></g>
<g><path style="opacity:1" fill="#b38a48" d="M 207.5,193.5 C 209.75,193.181 211.75,193.681 213.5,195C 206.652,195.174 201.152,198.008 197,203.5C 197.027,201.583 197.861,199.916 199.5,198.5C 201.928,196.295 204.595,194.628 207.5,193.5 Z"/></g>
<g><path style="opacity:1" fill="#a68146" d="M 106.5,186.5 C 107.765,187.514 108.431,189.014 108.5,191C 109.333,195.488 109.5,199.988 109,204.5C 107.351,198.64 106.517,192.64 106.5,186.5 Z"/></g>
<g><path style="opacity:1" fill="#5e513d" d="M 154.5,203.5 C 151.167,202.167 147.833,202.167 144.5,203.5C 143.957,203.44 143.624,203.107 143.5,202.5C 147.5,201.167 151.5,201.167 155.5,202.5C 155.376,203.107 155.043,203.44 154.5,203.5 Z"/></g>
<g><path style="opacity:1" fill="#c09348" d="M 123.5,187.5 C 130.367,186.437 136.367,188.104 141.5,192.5C 141,192.833 140.5,193.167 140,193.5C 134.377,190.317 128.543,189.817 122.5,192C 121.833,192.667 121.167,193.333 120.5,194C 129.147,190.858 136.814,192.525 143.5,199C 138.677,198.352 133.844,197.518 129,196.5C 125.786,196.208 122.952,197.041 120.5,199C 127.931,197.511 134.931,198.678 141.5,202.5C 140.5,202.833 139.5,203.167 138.5,203.5C 135.167,202.833 131.833,202.167 128.5,201.5C 126.311,201.594 124.311,202.261 122.5,203.5C 121.167,204.167 121.167,204.833 122.5,205.5C 127.96,202.919 133.293,203.252 138.5,206.5C 134.53,207.196 130.53,207.363 126.5,207C 125.584,207.374 124.75,207.874 124,208.5C 123.759,212.731 122.259,216.398 119.5,219.5C 114.167,222.338 108.501,223.671 102.5,223.5C 101.59,215.297 105.09,210.297 113,208.5C 113.009,199.577 116.509,192.577 123.5,187.5 Z"/></g>
<g><path style="opacity:1" fill="#b68e48" d="M 154.5,203.5 C 151.167,204.833 147.833,204.833 144.5,203.5C 147.833,202.167 151.167,202.167 154.5,203.5 Z"/></g>
<g><path style="opacity:1" fill="#b38a48" d="M 209.5,201.5 C 212.941,201.301 216.274,201.801 219.5,203C 215.833,203.333 212.167,203.667 208.5,204C 205.258,205.639 201.924,206.639 198.5,207C 202.017,204.674 205.683,202.84 209.5,201.5 Z"/></g>
<g><path style="opacity:1" fill="#af8847" d="M 79.5,201.5 C 86.3934,200.655 92.7267,202.155 98.5,206C 93.7537,205.111 88.9203,204.278 84,203.5C 81.4598,203.896 78.9598,204.063 76.5,204C 77.5707,203.148 78.5707,202.315 79.5,201.5 Z"/></g>
<g><path style="opacity:1" fill="#c09348" d="M 195.5,218.5 C 195.5,220.167 195.5,221.833 195.5,223.5C 193.5,223.5 191.5,223.5 189.5,223.5C 186.197,222.17 182.864,220.837 179.5,219.5C 177.279,215.793 175.279,211.96 173.5,208C 172.127,207.125 170.627,206.625 169,206.5C 165.861,207.426 162.694,207.592 159.5,207C 160.623,205.956 161.956,205.29 163.5,205C 168.288,204.709 172.955,204.542 177.5,204.5C 175.102,202.896 172.435,201.896 169.5,201.5C 165.503,202.909 161.503,203.242 157.5,202.5C 164.019,198.534 171.019,197.368 178.5,199C 171.471,195.699 164.471,195.866 157.5,199.5C 156.833,199.167 156.167,198.833 155.5,198.5C 158.705,196.398 162.038,194.565 165.5,193C 169.907,192.858 174.241,193.192 178.5,194C 172.142,189.562 165.642,189.395 159,193.5C 157.174,192.99 157.007,192.156 158.5,191C 164.997,186.816 171.664,186.483 178.5,190C 182.943,195.318 185.443,201.485 186,208.5C 191.43,209.761 194.597,213.095 195.5,218.5 Z"/></g>
<g><path style="opacity:1" fill="#bd9249" d="M 126.5,208.5 C 127.5,208.5 128.5,208.5 129.5,208.5C 129.554,211.967 128.054,214.634 125,216.5C 124.855,213.739 125.355,211.073 126.5,208.5 Z"/></g>
<g><path style="opacity:1" fill="#b98e48" d="M 195.5,211.5 C 195.56,210.957 195.893,210.624 196.5,210.5C 201.137,213.75 202.803,218.083 201.5,223.5C 201.061,218.621 199.061,214.621 195.5,211.5 Z"/></g>
<g><path style="opacity:1" fill="#b58c48" d="M 101.5,210.5 C 102.239,210.369 102.906,210.536 103.5,211C 100.247,214.676 97.9133,218.842 96.5,223.5C 96.1114,218.573 97.778,214.24 101.5,210.5 Z"/></g>
<g><path style="opacity:1" fill="#b28a47" d="M 169.5,209.5 C 170.833,209.5 172.167,209.5 173.5,209.5C 173.466,212.199 174.133,214.699 175.5,217C 171.618,216.263 169.618,213.763 169.5,209.5 Z"/></g>
<g><path style="opacity:1" fill="#a38046" d="M 91.5,209.5 C 92.2389,209.369 92.9056,209.536 93.5,210C 89.4495,213.721 86.6162,218.221 85,223.5C 85.2544,217.989 87.4211,213.322 91.5,209.5 Z"/></g>
<g><path style="opacity:1" fill="#b88f48" d="M 223.5,212.5 C 225.855,214.246 226.022,216.246 224,218.5C 222.204,216.598 222.037,214.598 223.5,212.5 Z"/></g>
<g><path style="opacity:1" fill="#9f7d44" d="M 75.5,214.5 C 77.4646,214.948 77.7979,215.948 76.5,217.5C 75.6143,216.675 75.281,215.675 75.5,214.5 Z"/></g>
<g><path style="opacity:1" fill="#a28044" d="M 155.5,215.5 C 156.573,216.251 156.74,217.251 156,218.5C 154.272,217.648 154.105,216.648 155.5,215.5 Z"/></g>
<g><path style="opacity:1" fill="#a98446" d="M 205.5,210.5 C 205.897,209.475 206.563,209.308 207.5,210C 211.671,213.191 213.504,217.358 213,222.5C 211.738,217.626 209.238,213.626 205.5,210.5 Z"/></g>
<g><path style="opacity:1" fill="#9c7b46" d="M 137.5,218.5 C 138.675,218.281 139.675,218.614 140.5,219.5C 138.948,220.798 137.948,220.465 137.5,218.5 Z"/></g>
<g><path style="opacity:1" fill="#64553e" d="M 195.5,218.5 C 196.461,220.265 196.795,222.265 196.5,224.5C 193.941,224.802 191.607,224.468 189.5,223.5C 191.5,223.5 193.5,223.5 195.5,223.5C 195.5,221.833 195.5,220.167 195.5,218.5 Z"/></g>
<g><path style="opacity:1" fill="#b38a47" d="M 61.5,234.5 C 67.31,233.51 73.31,233.177 79.5,233.5C 79.6602,235.199 79.4935,236.866 79,238.5C 75.6727,235.846 71.8394,234.846 67.5,235.5C 67.5,238.5 67.5,241.5 67.5,244.5C 70.6852,244.98 73.5185,244.314 76,242.5C 76.6667,244.5 76.6667,246.5 76,248.5C 73.5185,246.686 70.6852,246.02 67.5,246.5C 67.2161,249.777 67.5495,252.943 68.5,256C 73.1169,257.297 76.9502,256.13 80,252.5C 80.6667,253.833 80.6667,255.167 80,256.5C 77.276,257.776 74.276,258.442 71,258.5C 68.1667,258.167 65.3333,257.833 62.5,257.5C 63.6318,250.217 63.7985,242.883 63,235.5C 62.6174,234.944 62.1174,234.611 61.5,234.5 Z"/></g>
<g><path style="opacity:1" fill="#b78d47" d="M 92.5,256.5 C 90.3926,257.468 88.0593,257.802 85.5,257.5C 86.8305,249.863 86.8305,242.197 85.5,234.5C 90.1313,233.338 94.798,233.172 99.5,234C 104.964,238.705 104.631,243.038 98.5,247C 100.087,251.348 102.753,254.848 106.5,257.5C 104.926,258.631 103.259,258.798 101.5,258C 98.5564,255.278 96.2231,252.111 94.5,248.5C 93.675,247.614 92.675,247.281 91.5,247.5C 91.19,250.713 91.5233,253.713 92.5,256.5 Z"/></g>
<g><path style="opacity:1" fill="#142335" d="M 91.5,234.5 C 99.8283,235.069 101.495,238.569 96.5,245C 94.8659,245.494 93.1992,245.66 91.5,245.5C 91.5,241.833 91.5,238.167 91.5,234.5 Z"/></g>
<g><path style="opacity:1" fill="#be9248" d="M 197.5,256.5 C 195.393,257.468 193.059,257.802 190.5,257.5C 190.783,256.711 191.283,256.044 192,255.5C 192.667,249.167 192.667,242.833 192,236.5C 191.308,235.975 190.808,235.308 190.5,234.5C 193.106,233.348 195.773,233.182 198.5,234C 198,234.5 197.5,235 197,235.5C 196.179,242.679 196.345,249.679 197.5,256.5 Z"/></g>
<g><path style="opacity:1" fill="#c09348" d="M 184.5,257.5 C 181.941,257.802 179.607,257.468 177.5,256.5C 178.479,253.375 178.813,250.042 178.5,246.5C 174.5,246.5 170.5,246.5 166.5,246.5C 166.211,250.106 166.544,253.606 167.5,257C 165.167,257.667 162.833,257.667 160.5,257C 161,256.5 161.5,256 162,255.5C 162.667,248.833 162.667,242.167 162,235.5C 161.5,235 161,234.5 160.5,234C 163.167,233.333 165.833,233.333 168.5,234C 168,234.5 167.5,235 167,235.5C 166.502,238.482 166.335,241.482 166.5,244.5C 170.5,244.5 174.5,244.5 178.5,244.5C 178.665,241.482 178.498,238.482 178,235.5C 177.5,235 177,234.5 176.5,234C 179.227,233.182 181.894,233.348 184.5,234.5C 183.246,237.976 182.579,241.642 182.5,245.5C 182.667,248.833 182.833,252.167 183,255.5C 183.717,256.044 184.217,256.711 184.5,257.5 Z"/></g>
<g><path style="opacity:1" fill="#bd9148" d="M 45.5,233.5 C 49.1064,233.211 52.6064,233.544 56,234.5C 56.6667,236.167 56.6667,237.833 56,239.5C 53.9984,236.113 51.165,234.613 47.5,235C 44.7348,237.966 45.0682,240.633 48.5,243C 51.7591,244.211 54.5925,246.044 57,248.5C 58.2931,252.582 57.1265,255.749 53.5,258C 50.1667,258.667 46.8333,258.667 43.5,258C 41.5561,255.847 41.0561,253.347 42,250.5C 43.9379,255.458 47.4379,257.291 52.5,256C 53.9817,253.408 53.6483,251.075 51.5,249C 47.6501,247.672 44.4834,245.505 42,242.5C 40.9804,238.553 42.1471,235.553 45.5,233.5 Z"/></g>
<g><path style="opacity:1" fill="#c49649" d="M 202.5,234.5 C 204.364,233.207 206.364,233.207 208.5,234.5C 213.518,239.684 218.351,245.017 223,250.5C 223.667,245.833 223.667,241.167 223,236.5C 222.167,235.667 221.333,234.833 220.5,234C 223.167,233.333 225.833,233.333 228.5,234C 227.667,234.833 226.833,235.667 226,236.5C 225.667,243.833 225.333,251.167 225,258.5C 219.699,252.198 214.032,246.198 208,240.5C 207.333,245.167 207.333,249.833 208,254.5C 208.5,255.667 209.333,256.5 210.5,257C 208.167,257.667 205.833,257.667 203.5,257C 204,256.5 204.5,256 205,255.5C 205.667,249.167 205.667,242.833 205,236.5C 204.292,235.619 203.458,234.953 202.5,234.5 Z"/></g>
<g><path style="opacity:1" fill="#bd9148" d="M 144.5,256.5 C 142.393,257.468 140.059,257.802 137.5,257.5C 137.783,256.711 138.283,256.044 139,255.5C 139.667,248.833 139.667,242.167 139,235.5C 138.5,235 138,234.5 137.5,234C 142.167,233.333 146.833,233.333 151.5,234C 157.703,237.829 158.036,242.162 152.5,247C 149.649,248.289 146.649,248.789 143.5,248.5C 143.194,251.385 143.527,254.052 144.5,256.5 Z"/></g>
<g><path style="opacity:1" fill="#102134" d="M 143.5,234.5 C 151.571,235.174 153.571,239.007 149.5,246C 147.527,246.495 145.527,246.662 143.5,246.5C 143.5,242.5 143.5,238.5 143.5,234.5 Z"/></g>
<g><path style="opacity:1" fill="#b98e47" d="M 239.5,234.5 C 241.364,233.207 243.364,233.207 245.5,234.5C 248.452,242.366 251.786,250.033 255.5,257.5C 252.833,258.833 250.167,258.833 247.5,257.5C 248.516,254.866 248.516,252.2 247.5,249.5C 244.428,249.183 241.428,249.516 238.5,250.5C 237.696,251.941 237.029,253.441 236.5,255C 239.051,257.344 238.384,258.511 234.5,258.5C 233.5,258.167 232.5,257.833 231.5,257.5C 235.591,250.913 238.924,243.913 241.5,236.5C 241.145,235.478 240.478,234.811 239.5,234.5 Z"/></g>
<g><path style="opacity:1" fill="#242a37" d="M 242.5,238.5 C 244.198,241.231 245.531,244.231 246.5,247.5C 244.257,248.474 241.924,248.808 239.5,248.5C 240.099,245.037 241.099,241.704 242.5,238.5 Z"/></g>
<g><path style="opacity:1" fill="#bd9148" d="M 132.5,256.5 C 130.5,257.833 128.5,257.833 126.5,256.5C 126.036,249.628 122.536,247.628 116,250.5C 114.336,252.786 114.17,255.119 115.5,257.5C 113.265,257.795 111.265,257.461 109.5,256.5C 113.392,250.541 116.392,244.041 118.5,237C 118.265,236.127 117.931,235.293 117.5,234.5C 119.396,233.534 121.396,233.201 123.5,233.5C 125.703,241.558 128.703,249.225 132.5,256.5 Z"/></g>
<g><path style="opacity:1" fill="#162435" d="M 119.5,239.5 C 121.837,241.507 123.171,244.173 123.5,247.5C 121.5,247.5 119.5,247.5 117.5,247.5C 118.167,244.833 118.833,242.167 119.5,239.5 Z"/></g>
<g><path style="opacity:1" fill="#574c3c" d="M 92.5,256.5 C 93.0431,256.56 93.3764,256.893 93.5,257.5C 90.6908,258.8 88.0241,258.8 85.5,257.5C 88.0593,257.802 90.3926,257.468 92.5,256.5 Z"/></g>
<g><path style="opacity:1" fill="#63553d" d="M 109.5,256.5 C 111.265,257.461 113.265,257.795 115.5,257.5C 113.307,258.797 110.973,258.797 108.5,257.5C 108.624,256.893 108.957,256.56 109.5,256.5 Z"/></g>
<g><path style="opacity:1" fill="#6b5b3d" d="M 126.5,256.5 C 128.5,257.833 130.5,257.833 132.5,256.5C 133.043,256.56 133.376,256.893 133.5,257.5C 130.833,258.833 128.167,258.833 125.5,257.5C 125.624,256.893 125.957,256.56 126.5,256.5 Z"/></g>
<g><path style="opacity:1" fill="#5a4d3c" d="M 144.5,256.5 C 145.043,256.56 145.376,256.893 145.5,257.5C 142.691,258.8 140.024,258.8 137.5,257.5C 140.059,257.802 142.393,257.468 144.5,256.5 Z"/></g>
<g><path style="opacity:1" fill="#584b3c" d="M 177.5,256.5 C 179.607,257.468 181.941,257.802 184.5,257.5C 181.976,258.8 179.309,258.8 176.5,257.5C 176.624,256.893 176.957,256.56 177.5,256.5 Z"/></g>
<g><path style="opacity:1" fill="#5a4d3c" d="M 197.5,256.5 C 198.043,256.56 198.376,256.893 198.5,257.5C 195.691,258.8 193.024,258.8 190.5,257.5C 193.059,257.802 195.393,257.468 197.5,256.5 Z"/></g>
<g><path style="opacity:1" fill="#7f6640" d="M 200.5,267.5 C 199.167,266.167 197.833,266.167 196.5,267.5C 193.999,265.963 194.499,265.296 198,265.5C 199.167,265.833 200.333,266.167 201.5,266.5C 201.376,267.107 201.043,267.44 200.5,267.5 Z"/></g>
<g><path style="opacity:1" fill="#bb9048" d="M 133.5,265.5 C 147.354,264.887 151.52,270.887 146,283.5C 139.723,288.936 133.723,288.603 128,282.5C 124.783,275.102 126.617,269.435 133.5,265.5 Z"/></g>
<g><path style="opacity:1" fill="#112235" d="M 135.5,266.5 C 143.849,268.074 146.682,273.074 144,281.5C 141.369,285.629 137.869,286.462 133.5,284C 128.975,277.374 129.641,271.541 135.5,266.5 Z"/></g>
<g><path style="opacity:1" fill="#bb9048" d="M 196.5,267.5 C 197.833,266.167 199.167,266.167 200.5,267.5C 199.833,273.679 199.167,280.012 198.5,286.5C 193.876,281.375 189.043,276.375 184,271.5C 183.333,275.5 183.333,279.5 184,283.5C 184.5,284.667 185.333,285.5 186.5,286C 184.5,286.667 182.5,286.667 180.5,286C 182.047,282.902 182.714,279.569 182.5,276C 183.041,272.082 182.041,268.749 179.5,266C 181.259,265.202 182.926,265.369 184.5,266.5C 188.485,270.985 192.651,275.318 197,279.5C 197.812,275.311 197.645,271.311 196.5,267.5 Z"/></g>
<g><path style="opacity:1" fill="#b78d48" d="M 97.5,265.5 C 99.288,265.215 100.955,265.548 102.5,266.5C 104.838,271.176 107.171,275.842 109.5,280.5C 111.935,275.962 114.102,271.296 116,266.5C 117.726,265.424 119.559,265.257 121.5,266C 119.993,267.473 119.326,269.307 119.5,271.5C 119.618,276.654 120.618,281.487 122.5,286C 120.167,286.667 117.833,286.667 115.5,286C 116.635,281.252 116.802,276.419 116,271.5C 113.409,276.431 110.909,281.431 108.5,286.5C 106.016,281.531 103.516,276.531 101,271.5C 100.833,273.833 100.667,276.167 100.5,278.5C 100.574,281.287 101.24,283.787 102.5,286C 100.5,286.667 98.5,286.667 96.5,286C 97,285.5 97.5,285 98,284.5C 98.7511,278.116 98.5844,271.783 97.5,265.5 Z"/></g>
<g><path style="opacity:1" fill="#b78d48" d="M 160.5,265.5 C 172.044,264.208 176.877,269.208 175,280.5C 169.708,288.241 163.375,289.241 156,283.5C 151.899,276.051 153.399,270.051 160.5,265.5 Z"/></g>
<g><path style="opacity:1" fill="#152335" d="M 162.5,266.5 C 167.489,266.318 170.655,268.651 172,273.5C 173.8,281.687 170.633,285.521 162.5,285C 155.929,278.633 155.929,272.467 162.5,266.5 Z"/></g>
</svg>
